# xmcd
# 
# Track frame offsets:
#     150
#     26977
#     54702
#     88547
#     115742
#     139540
#     161112
#     188575
# 
# Disc length: 2891
# 
# Revision: 5
# Processed by: cddbd v1.5.2PL0 Copyright (c) Steve Scherf et al.
# Submitted via: fre:ac v1.0.31
# 
DISCID=660b4908
DTITLE=T-SQUARE - 夏の惑星
DYEAR=1994
DGENRE=Fusion
TTITLE0=夜明けのビーナス
TTITLE1=COPACABANA
TTITLE2=夏の蜃気楼
TTITLE3=NO MORE TEARS
TTITLE4=SEASON
TTITLE5=BAD MOON
TTITLE6=SENTIMENTAL REASON
TTITLE7=SWEET SORROW
EXTD=1994.4.2
EXTT0=
EXTT1=
EXTT2=
EXTT3=
EXTT4=
EXTT5=
EXTT6=
EXTT7=
PLAYORDER=
